<?xml version="1.0" ?><!DOCTYPE svg  PUBLIC '-//W3C//DTD SVG 1.1//EN'  'http://www.w3.org/Graphics/SVG/1.1/DTD/svg11.dtd'><!-- Uploaded to: SVG Repo, www.svgrepo.com, Generator: SVG Repo Mixer Tools -->
<svg fill="#000000" width="800px" height="800px" viewBox="0 0 512 512" enable-background="new 0 0 512 512" id="light_x5F_bulb_1_" version="1.1" xml:space="preserve" xmlns="http://www.w3.org/2000/svg" xmlns:xlink="http://www.w3.org/1999/xlink"><path d="M363.803,321.699h-50.648V80.522c0-13.93-11.332-25.261-25.262-25.261s-25.262,11.332-25.262,25.261  v241.177h-13.262V80.522c0-13.93-11.332-25.261-25.261-25.261c-13.93,0-25.262,11.332-25.262,25.261v241.177h-50.649  c-10.721,0-19.443,8.723-19.443,19.443s8.722,19.443,19.443,19.443h50.5c-1.5,2.375-2.383,5.178-2.383,8.188  c0,4.729,2.148,8.964,5.516,11.789c-3.368,2.825-5.516,7.06-5.516,11.788c0,4.73,2.148,8.965,5.516,11.789  c-3.368,2.826-5.516,7.06-5.516,11.789c0,8.485,6.903,15.389,15.389,15.389h16.413v15.105c0,5.688,4.627,10.315,10.316,10.315  h35.135c5.688,0,10.315-4.628,10.315-10.315v-15.105h16.414c8.485,0,15.389-6.903,15.389-15.389c0-4.729-2.148-8.963-5.516-11.789  c3.367-2.824,5.516-7.059,5.516-11.789c0-4.729-2.148-8.963-5.516-11.788c3.367-2.825,5.516-7.06,5.516-11.789  c0-3.011-0.882-5.813-2.383-8.188h50.5c10.721,0,19.443-8.723,19.443-19.443S374.523,321.699,363.803,321.699z M269.83,80.522  c0-9.959,8.104-18.062,18.063-18.062s18.061,8.103,18.061,18.062v241.177H269.83V80.522z M206.046,80.522  c0-9.959,8.102-18.062,18.062-18.062c9.959,0,18.061,8.103,18.061,18.062v241.177h-36.123V80.522z M276.684,446.424  c0,1.718-1.398,3.115-3.116,3.115h-35.135c-1.718,0-3.116-1.397-3.116-3.115v-15.105h41.367V446.424z M300.297,424.119h-16.414  h-55.766h-16.413c-4.515,0-8.189-3.674-8.189-8.189s3.674-8.188,8.189-8.188h88.593c4.516,0,8.189,3.673,8.189,8.188  S304.813,424.119,300.297,424.119z M300.297,400.541h-88.593c-4.515,0-8.189-3.674-8.189-8.189c0-4.515,3.674-8.188,8.189-8.188  h88.593c4.516,0,8.189,3.673,8.189,8.188C308.486,396.867,304.813,400.541,300.297,400.541z M300.297,376.964h-88.593  c-4.515,0-8.189-3.675-8.189-8.189s3.674-8.188,8.189-8.188h88.593c4.516,0,8.189,3.674,8.189,8.188  S304.813,376.964,300.297,376.964z M363.803,353.387h-63.506h-88.593h-63.506c-6.751,0-12.243-5.492-12.243-12.244  c0-6.751,5.492-12.244,12.243-12.244h50.649h50.523h13.262h50.523h50.648c6.752,0,12.243,5.493,12.243,12.244  C376.046,347.895,370.555,353.387,363.803,353.387z" id="light_x5F_bulb"/></svg>